# xmcd
#
# Track frame offsets:
#	150
#	14664
#	35851
#	49520
#	66215
#	78695
#	101883
#	116565
#	139957
#	153430
#	169169
#	184719
#	200441
#	217616
#
# Disc length: 3024 seconds
#
# Revision: 1
# Processed by: cddbd v1.5.1PL2 Copyright (c) Steve Scherf et al.
# Submitted via: audiograbber 1.83.01
#
DISCID=c90bce0e
DTITLE=Anna B - Heartbones
DYEAR=2004
DGENRE=
TTITLE0=Luna
TTITLE1=Crazy Song
TTITLE2=Bar Song
TTITLE3=Fingertips
TTITLE4=Thicket Love
TTITLE5=Fine Friends
TTITLE6=Follow
TTITLE7=Crazy Blue Moon
TTITLE8=See It My Way
TTITLE9=Pony and Clown
TTITLE10=Two Skeletons
TTITLE11=Giant's Heart
TTITLE12=Heartbones
TTITLE13=Epilogue
EXTD=MAPL
EXTT0=
EXTT1=
EXTT2=
EXTT3=
EXTT4=
EXTT5=
EXTT6=
EXTT7=
EXTT8=
EXTT9=
EXTT10=
EXTT11=
EXTT12=
EXTT13=
PLAYORDER=
